<?xml version="1.0" standalone="no"?>
<!DOCTYPE svg PUBLIC "-//W3C//DTD SVG 20010904//EN"
 "http://www.w3.org/TR/2001/REC-SVG-20010904/DTD/svg10.dtd">
<svg version="1.0" xmlns="http://www.w3.org/2000/svg"
 width="363.000000pt" height="339.000000pt" viewBox="0 0 363.000000 339.000000"
 preserveAspectRatio="xMidYMid meet">

<g transform="translate(0.000000,339.000000) scale(0.100000,-0.100000)"
fill="#FFFFFF" stroke="none">
<path d="M544 2805 c-118 -26 -241 -112 -298 -209 -66 -113 -73 -259 -19 -376
57 -122 148 -200 282 -241 65 -19 87 -21 184 -15 134 8 147 1 148 -78 0 -46
19 -87 197 -431 219 -423 214 -415 292 -380 25 11 43 27 46 41 4 17 -46 124
-189 406 -161 316 -201 386 -226 401 -31 18 -62 64 -60 89 0 7 19 27 42 43
122 89 188 260 158 407 -37 176 -169 303 -356 343 -84 18 -121 18 -201 0z
m286 -71 c203 -96 289 -315 198 -504 -27 -56 -109 -144 -165 -177 -197 -115
-477 -39 -584 159 -33 61 -34 67 -34 173 0 128 16 174 85 249 48 52 89 79 169
113 49 21 69 23 161 21 93 -3 112 -7 170 -34z"/>
<path d="M2070 2680 c-144 -49 -210 -228 -141 -384 11 -26 68 -101 127 -168
115 -130 143 -179 144 -246 0 -89 -43 -142 -116 -142 -51 0 -86 26 -107 79 -9
22 -20 42 -25 45 -13 8 -92 -51 -92 -67 0 -7 15 -37 33 -67 44 -73 95 -100
192 -100 105 0 168 22 224 78 60 60 86 135 78 228 -7 98 -42 156 -173 294
-147 153 -177 217 -139 290 31 59 96 86 145 60 11 -6 33 -31 50 -55 34 -49 36
-49 93 -2 l29 24 -20 39 c-54 105 -168 140 -302 94z"/>
<path d="M1130 2613 c0 -5 10 -33 21 -63 31 -81 37 -217 11 -296 -23 -72 -74
-152 -136 -213 l-45 -44 39 -36 c28 -26 69 -95 150 -253 61 -120 115 -220 120
-223 14 -8 80 76 111 140 16 33 38 102 48 152 32 149 78 209 186 243 60 19 65
26 65 94 0 158 -120 268 -294 272 -76 2 -80 3 -94 30 -36 69 -182 227 -182
197z"/>
<path d="M2629 2373 c-72 -37 -141 -127 -170 -224 -18 -60 -21 -87 -16 -172
12 -234 103 -347 281 -347 86 0 185 67 202 137 10 40 -41 71 -65 41 -52 -65
-69 -79 -103 -85 -33 -5 -41 -2 -72 29 -42 42 -66 117 -66 210 l0 68 173 0
c94 0 178 4 186 9 11 7 12 23 7 71 -12 105 -43 187 -86 230 -67 67 -177 80
-271 33z m163 -90 c46 -49 65 -134 32 -147 -9 -3 -56 -6 -105 -6 l-89 0 0 38
c0 40 29 97 63 124 32 26 69 22 99 -9z"/>
<path d="M3144 2390 c-66 -15 -144 -82 -144 -123 0 -8 16 -22 36 -32 l37 -17
37 41 c32 35 44 41 78 41 22 0 48 -3 57 -6 25 -10 45 -58 45 -109 0 -60 -27
-87 -113 -114 -84 -26 -115 -42 -148 -78 -117 -126 -72 -336 76 -359 77 -11
132 0 176 36 l40 32 20 -26 c18 -23 27 -26 89 -26 l69 0 -19 43 c-18 38 -20
67 -20 292 0 138 -5 266 -10 287 -13 45 -75 103 -127 117 -43 12 -132 13 -179
1z m146 -489 l0 -129 -31 -31 c-67 -67 -129 -21 -129 94 0 88 30 139 105 178
54 29 55 28 55 -112z"/>
<path d="M170 2130 c0 -14 12 -67 26 -117 l26 -93 -27 -32 c-61 -72 -78 -154
-51 -243 13 -45 1 -42 149 -29 59 6 73 3 120 -20 29 -14 71 -41 93 -60 l39
-34 0 -88 c0 -73 4 -97 23 -131 l22 -43 40 40 c70 70 87 75 243 73 75 -1 137
-1 137 0 0 1 -52 103 -116 227 -84 162 -118 238 -121 271 l-5 47 -84 -6 c-187
-11 -349 63 -476 218 -34 42 -37 43 -38 20z"/>
<path d="M2410 1491 l-65 -6 -5 -435 c-3 -239 -2 -445 2 -457 7 -22 13 -23 97
-23 49 0 92 4 95 8 9 15 8 894 -1 902 -14 13 -55 16 -123 11z"/>
<path d="M2775 1478 c-3 -7 -4 -213 -3 -458 l3 -445 125 -3 c167 -4 310 12
376 42 153 70 213 201 202 447 -11 243 -91 370 -263 414 -77 20 -433 22 -440
3z m309 -80 c66 -20 137 -98 165 -183 35 -104 41 -270 12 -362 -11 -37 -31
-86 -44 -108 -39 -69 -149 -119 -221 -101 l-26 6 0 380 0 380 36 0 c20 0 55
-5 78 -12z"/>
<path d="M1321 1452 c-11 -8 -1 -36 54 -143 37 -74 73 -139 81 -145 8 -6 52
-14 98 -17 195 -14 370 -109 483 -263 l48 -66 3 37 c5 56 -25 181 -63 260 -67
140 -210 260 -369 311 -62 20 -109 27 -201 31 -68 2 -126 0 -134 -5z"/>
<path d="M949 1252 c-77 -82 -113 -145 -139 -248 -35 -135 -22 -290 33 -386
l21 -39 13 68 c19 105 83 225 162 303 36 36 78 75 94 88 l27 22 -65 130 c-36
71 -69 130 -74 130 -5 0 -37 -31 -72 -68z"/>
</g>
</svg>
